HIERARCHY
ROOT Hips
{
	OFFSET 0.000000 97.167313 0.000000
	CHANNELS 6 Xposition Yposition Zposition Xrotation Yrotation Zrotation
	JOINT Spine
	{
		OFFSET 0.000000 13.784798 0.064400
		CHANNELS 3 Xrotation Yrotation Zrotation
		JOINT Spine1
		{
			OFFSET 0.000000 12.037903 0.404700
			CHANNELS 3 Xrotation Yrotation Zrotation
			JOINT Spine2
			{
				OFFSET 0.000000 17.795601 0.420200
				CHANNELS 3 Xrotation Yrotation Zrotation
				JOINT Neck
				{
					OFFSET 0.000000 39.131302 11.954600
					CHANNELS 3 Xrotation Yrotation Zrotation
					JOINT Head
					{
						OFFSET 0.000000 14.456192 15.627699
						CHANNELS 3 Xrotation Yrotation Zrotation
						JOINT HeadTop_End
						{
							OFFSET 0.000000 15.703506 7.603401
							CHANNELS 3 Xrotation Yrotation Zrotation
							End Site
							{
								OFFSET 0.000000 17.447403 0.000000
							}
						}
					}
				}
				JOINT LeftShoulder
				{
					OFFSET 17.399500 24.608795 1.168800
					CHANNELS 3 Xrotation Yrotation Zrotation
					JOINT LeftArm
					{
						OFFSET 18.980635 5.765305 1.818600
						CHANNELS 3 Xrotation Yrotation Zrotation
						JOINT LeftForeArm
						{
							OFFSET 49.290169 0.000000 0.000000
							CHANNELS 3 Xrotation Yrotation Zrotation
							JOINT LeftHand
							{
								OFFSET 31.562012 0.000000 0.000000
								CHANNELS 3 Xrotation Yrotation Zrotation
								JOINT LeftHandThumb1
								{
									OFFSET 6.133995 -4.388519 7.076070
									CHANNELS 3 Xrotation Yrotation Zrotation
									JOINT LeftHandThumb2
									{
										OFFSET 6.037666 -3.485840 3.485847
										CHANNELS 3 Xrotation Yrotation Zrotation
										JOINT LeftHandThumb3
										{
											OFFSET 6.496506 -3.750763 3.750761
											CHANNELS 3 Xrotation Yrotation Zrotation
											JOINT LeftHandThumb4
											{
												OFFSET 5.616882 -3.242905 3.242910
												CHANNELS 3 Xrotation Yrotation Zrotation
												End Site
												{
													OFFSET -1.254608 7.132141 0.375429
												}
											}
										}
									}
								}
								JOINT LeftHandPinky1
								{
									OFFSET 18.920792 -0.453171 -11.426712
									CHANNELS 3 Xrotation Yrotation Zrotation
									JOINT LeftHandPinky2
									{
										OFFSET 4.919586 0.000000 0.000000
										CHANNELS 3 Xrotation Yrotation Zrotation
										JOINT LeftHandPinky3
										{
											OFFSET 5.233047 0.000000 0.000000
											CHANNELS 3 Xrotation Yrotation Zrotation
											JOINT LeftHandPinky4
											{
												OFFSET 5.571716 0.000000 0.000000
												CHANNELS 3 Xrotation Yrotation Zrotation
												End Site
												{
													OFFSET -3.459808 4.342407 -0.466164
												}
											}
										}
									}
								}
								JOINT LeftHandRing1
								{
									OFFSET 22.726120 -0.094986 -6.500475
									CHANNELS 3 Xrotation Yrotation Zrotation
									JOINT LeftHandRing2
									{
										OFFSET 6.408615 0.000000 0.000000
										CHANNELS 3 Xrotation Yrotation Zrotation
										JOINT LeftHandRing3
										{
											OFFSET 6.150223 0.000000 0.000000
											CHANNELS 3 Xrotation Yrotation Zrotation
											JOINT LeftHandRing4
											{
												OFFSET 6.145386 0.000000 0.000000
												CHANNELS 3 Xrotation Yrotation Zrotation
												End Site
												{
													OFFSET -3.671402 4.923981 -0.202372
												}
											}
										}
									}
								}
								JOINT LeftHandMiddle1
								{
									OFFSET 23.373947 0.000000 0.000001
									CHANNELS 3 Xrotation Yrotation Zrotation
									JOINT LeftHandMiddle2
									{
										OFFSET 6.996567 0.000000 0.000000
										CHANNELS 3 Xrotation Yrotation Zrotation
										JOINT LeftHandMiddle3
										{
											OFFSET 7.015945 0.000000 0.000000
											CHANNELS 3 Xrotation Yrotation Zrotation
											JOINT LeftHandMiddle4
											{
												OFFSET 7.721573 0.000000 0.000000
												CHANNELS 3 Xrotation Yrotation Zrotation
												End Site
												{
													OFFSET -4.651108 6.158463 0.251582
												}
											}
										}
									}
								}
								JOINT LeftHandIndex1
								{
									OFFSET 21.310577 -0.490082 6.209344
									CHANNELS 3 Xrotation Yrotation Zrotation
									JOINT LeftHandIndex2
									{
										OFFSET 7.536453 0.000000 0.000000
										CHANNELS 3 Xrotation Yrotation Zrotation
										JOINT LeftHandIndex3
										{
											OFFSET 7.512344 0.000000 0.000000
											CHANNELS 3 Xrotation Yrotation Zrotation
											JOINT LeftHandIndex4
											{
												OFFSET 10.212402 0.000000 0.000001
												CHANNELS 3 Xrotation Yrotation Zrotation
												End Site
												{
													OFFSET -5.180801 8.690506 1.388433
												}
											}
										}
									}
								}
							}
						}
					}
				}
				JOINT RightShoulder
				{
					OFFSET -17.399500 24.608795 1.168800
					CHANNELS 3 Xrotation Yrotation Zrotation
					JOINT RightArm
					{
						OFFSET -18.980635 5.765305 1.818600
						CHANNELS 3 Xrotation Yrotation Zrotation
						JOINT RightForeArm
						{
							OFFSET -49.290169 0.000000 0.000000
							CHANNELS 3 Xrotation Yrotation Zrotation
							JOINT RightHand
							{
								OFFSET -31.562012 0.000000 0.000000
								CHANNELS 3 Xrotation Yrotation Zrotation
								JOINT RightHandThumb1
								{
									OFFSET -6.133995 -4.388519 7.076070
									CHANNELS 3 Xrotation Yrotation Zrotation
									JOINT RightHandThumb2
									{
										OFFSET -6.037666 -3.485840 3.485847
										CHANNELS 3 Xrotation Yrotation Zrotation
										JOINT RightHandThumb3
										{
											OFFSET -6.496506 -3.750763 3.750761
											CHANNELS 3 Xrotation Yrotation Zrotation
											JOINT RightHandThumb4
											{
												OFFSET -5.616882 -3.242905 3.242910
												CHANNELS 3 Xrotation Yrotation Zrotation
												End Site
												{
													OFFSET 1.254608 7.132141 0.375429
												}
											}
										}
									}
								}
								JOINT RightHandIndex1
								{
									OFFSET -21.310577 -0.490082 6.209344
									CHANNELS 3 Xrotation Yrotation Zrotation
									JOINT RightHandIndex2
									{
										OFFSET -7.536453 0.000000 0.000000
										CHANNELS 3 Xrotation Yrotation Zrotation
										JOINT RightHandIndex3
										{
											OFFSET -7.512344 0.000000 0.000000
											CHANNELS 3 Xrotation Yrotation Zrotation
											JOINT RightHandIndex4
											{
												OFFSET -10.212402 0.000000 0.000001
												CHANNELS 3 Xrotation Yrotation Zrotation
												End Site
												{
													OFFSET 5.180801 8.690506 1.388433
												}
											}
										}
									}
								}
								JOINT RightHandMiddle1
								{
									OFFSET -23.373947 0.000000 0.000001
									CHANNELS 3 Xrotation Yrotation Zrotation
									JOINT RightHandMiddle2
									{
										OFFSET -6.996567 0.000000 0.000000
										CHANNELS 3 Xrotation Yrotation Zrotation
										JOINT RightHandMiddle3
										{
											OFFSET -7.015945 0.000000 0.000000
											CHANNELS 3 Xrotation Yrotation Zrotation
											JOINT RightHandMiddle4
											{
												OFFSET -7.721573 0.000000 0.000000
												CHANNELS 3 Xrotation Yrotation Zrotation
												End Site
												{
													OFFSET 4.651108 6.158463 0.251582
												}
											}
										}
									}
								}
								JOINT RightHandRing1
								{
									OFFSET -22.726120 -0.094986 -6.500475
									CHANNELS 3 Xrotation Yrotation Zrotation
									JOINT RightHandRing2
									{
										OFFSET -6.408615 0.000000 0.000000
										CHANNELS 3 Xrotation Yrotation Zrotation
										JOINT RightHandRing3
										{
											OFFSET -6.150223 0.000000 0.000000
											CHANNELS 3 Xrotation Yrotation Zrotation
											JOINT RightHandRing4
											{
												OFFSET -6.145386 0.000000 0.000000
												CHANNELS 3 Xrotation Yrotation Zrotation
												End Site
												{
													OFFSET 3.671402 4.923981 -0.202372
												}
											}
										}
									}
								}
								JOINT RightHandPinky1
								{
									OFFSET -18.920792 -0.453171 -11.426712
									CHANNELS 3 Xrotation Yrotation Zrotation
									JOINT RightHandPinky2
									{
										OFFSET -4.919586 0.000000 0.000000
										CHANNELS 3 Xrotation Yrotation Zrotation
										JOINT RightHandPinky3
										{
											OFFSET -5.233047 0.000000 0.000000
											CHANNELS 3 Xrotation Yrotation Zrotation
											JOINT RightHandPinky4
											{
												OFFSET -5.571716 0.000000 0.000000
												CHANNELS 3 Xrotation Yrotation Zrotation
												End Site
												{
													OFFSET 3.459808 4.342407 -0.466164
												}
											}
										}
									}
								}
							}
						}
					}
				}
			}
		}
	}
	JOINT LeftUpLeg
	{
		OFFSET 19.899099 -7.885101 -3.429500
		CHANNELS 3 Xrotation Yrotation Zrotation
		JOINT LeftLeg
		{
			OFFSET 1.745560 -36.997807 10.304700
			CHANNELS 3 Xrotation Yrotation Zrotation
			JOINT LeftFoot
			{
				OFFSET -1.745558 -29.803308 -13.615400
				CHANNELS 3 Xrotation Yrotation Zrotation
				JOINT LeftToeBase
				{
					OFFSET 1.181900 -18.539904 15.226099
					CHANNELS 3 Xrotation Yrotation Zrotation
					JOINT LeftToe_End
					{
						OFFSET -0.863701 1.402801 16.534700
						CHANNELS 3 Xrotation Yrotation Zrotation
						End Site
						{
							OFFSET 0.000000 16.616566 0.000000
						}
					}
				}
			}
		}
	}
	JOINT RightUpLeg
	{
		OFFSET -19.899099 -7.885101 -3.429500
		CHANNELS 3 Xrotation Yrotation Zrotation
		JOINT RightLeg
		{
			OFFSET -1.745560 -36.997807 10.304700
			CHANNELS 3 Xrotation Yrotation Zrotation
			JOINT RightFoot
			{
				OFFSET 1.745558 -29.803308 -13.615400
				CHANNELS 3 Xrotation Yrotation Zrotation
				JOINT RightToeBase
				{
					OFFSET -1.181900 -18.539904 15.226099
					CHANNELS 3 Xrotation Yrotation Zrotation
					JOINT RightToe_End
					{
						OFFSET 0.863701 1.402801 16.534700
						CHANNELS 3 Xrotation Yrotation Zrotation
						End Site
						{
							OFFSET 0.000000 16.616566 0.000000
						}
					}
				}
			}
		}
	}
}
MOTION
Frames: 4
Frame Time: 0.033333
-1.213536 92.561737 1.308010 2.912699 -28.995577 1.056260 7.836790 -0.339521 -2.550030 1.099255 -0.880573 2.383460 1.108686 -0.590453 2.446365 -3.841325 18.018988 -6.496512 -6.333205 13.021593 0.301391 0.000000 0.000000 -0.000000 -0.057392 -8.759455 -0.060995 -55.250804 0.329430 -41.449365 11.576183 -65.826590 12.997998 -50.194264 12.352932 4.610851 17.551597 -5.699202 -12.932285 10.850496 26.127709 8.644795 20.926909 51.115889 0.218782 -0.000003 0.000003 -0.000001 10.030075 13.637021 -84.750237 0.867779 0.054446 -64.595585 1.132591 1.266264 -55.016296 -0.000001 0.000003 -0.000004 8.576389 2.157219 -75.147230 -0.199444 1.000182 -57.855343 0.452846 1.749738 -53.581318 -0.000001 0.000001 0.000005 7.504734 1.174490 -63.778510 1.816275 1.475228 -64.567950 0.130364 -0.912170 -43.272479 -0.000000 -0.000001 0.000002 13.980895 1.201498 -55.004384 0.361031 1.154024 -65.441941 1.972233 2.153082 -57.664917 -0.000002 0.000003 0.000001 4.847454 7.770586 5.559216 -0.932645 -2.177508 61.844767 11.299857 18.945053 -3.988018 -0.459110 6.619363 5.830482 15.783276 -2.720589 -17.206621 -2.196652 -31.120603 7.358908 -6.566797 -4.138113 2.407589 -0.000001 -0.000004 0.000002 2.381339 -3.662138 8.488277 -2.114671 -2.473825 18.674186 -1.873281 -4.778332 14.177098 0.000001 -0.000003 -0.000002 -1.933738 -5.706016 13.666363 0.276102 -5.107423 26.986998 -0.664863 -1.209651 16.126420 -0.000000 0.000000 -0.000009 -3.232788 -8.558098 11.774512 4.054291 -4.066909 33.263796 2.104948 -3.142203 15.593083 -0.000000 -0.000000 -0.000003 -6.476409 -11.325944 23.211464 10.722939 -2.550228 34.822627 6.419074 -3.080921 15.311519 -0.000000 0.000000 -0.000003 -13.612600 18.047824 14.225674 17.102852 10.527077 -2.458407 -4.762505 -1.686489 -8.505746 -0.180864 0.007904 -0.311790 -0.000000 0.000000 0.000000 -9.528057 -1.105591 -9.788103 13.111492 9.995484 1.017438 -6.839793 -1.414710 7.752681 -1.288152 -0.016696 0.149979 -0.000000 -0.000002 -0.000000 
-1.243418 92.519447 1.291106 2.917435 -28.605768 1.030039 7.832977 -0.319047 -2.575344 1.098630 -0.859248 2.391778 1.107939 -0.568288 2.454431 -3.724378 18.061530 -6.526913 -6.327069 13.072475 0.290126 -0.000000 0.000000 0.000000 -0.056010 -8.747527 0.030801 -55.176833 0.384343 -41.530654 11.556118 -65.765685 12.995837 -50.159639 12.535452 4.731735 17.551602 -5.699203 -12.932287 10.850496 26.127714 8.644801 20.926907 51.115893 0.218786 0.000004 0.000001 0.000001 10.030077 13.637017 -84.750237 0.867784 0.054459 -64.595578 1.132601 1.266269 -55.016293 0.000000 0.000000 -0.000002 8.576389 2.157218 -75.147230 -0.199446 1.000183 -57.855343 0.452847 1.749737 -53.581314 -0.000000 0.000001 0.000002 7.504735 1.174490 -63.778503 1.816277 1.475230 -64.567957 0.130365 -0.912170 -43.272486 0.000001 -0.000001 0.000009 13.980898 1.201500 -55.004381 0.361034 1.154023 -65.441948 1.972233 2.153079 -57.664924 0.000001 -0.000000 0.000001 4.878300 7.775024 5.559446 -0.754026 -2.253685 61.772463 11.284995 18.687167 -3.962884 -0.297899 6.706111 5.864048 15.783278 -2.720587 -17.206623 -2.196651 -31.120603 7.358909 -6.566794 -4.138114 2.407596 -0.000001 0.000002 0.000003 2.381449 -3.661264 8.445311 -2.114695 -2.472974 18.631259 -1.874733 -4.777874 14.133989 -0.000000 -0.000001 -0.000003 -1.933968 -5.705298 13.623419 0.274813 -5.107180 26.943892 -0.664888 -1.208867 16.083463 0.000001 0.000000 -0.000008 -3.232547 -8.557194 11.731779 4.054395 -4.065865 33.220637 2.104735 -3.141422 15.550025 -0.000001 0.000001 -0.000001 -6.477594 -11.325428 23.168920 10.722423 -2.553608 34.779542 6.418272 -3.080152 15.268289 -0.000001 -0.000000 0.000006 -13.888353 18.150808 14.373602 17.205033 10.278337 -2.567734 -4.732098 -1.937908 -8.429740 -0.180854 -0.043208 -0.249635 0.000000 0.000000 -0.000000 -9.439280 -1.282688 -9.790201 13.254751 9.861362 1.059667 -7.051093 -1.495070 7.684704 -1.285137 -0.006506 0.158678 -0.000000 0.000001 0.000000 
-1.283585 92.424377 1.260672 2.940256 -28.136787 1.021107 7.845166 -0.298208 -2.591435 1.107482 -0.842589 2.408177 1.116999 -0.551960 2.470553 -3.650810 18.006382 -6.586820 -6.401253 13.019508 0.248969 -0.000000 -0.000000 0.000000 -0.046639 -8.712830 0.140095 -55.043101 0.527762 -41.528073 11.604744 -65.814180 13.024808 -50.358664 12.586448 4.857781 17.551597 -5.699202 -12.932285 10.850500 26.127709 8.644801 20.926906 51.115889 0.218785 0.000002 0.000002 -0.000002 10.030076 13.637020 -84.750237 0.867777 0.054461 -64.595592 1.132591 1.266273 -55.016286 -0.000001 0.000004 -0.000005 8.576389 2.157218 -75.147230 -0.199441 1.000184 -57.855343 0.452847 1.749737 -53.581318 0.000000 0.000000 0.000003 7.504737 1.174490 -63.778503 1.816274 1.475227 -64.567950 0.130366 -0.912172 -43.272486 0.000002 -0.000001 0.000008 13.980895 1.201500 -55.004381 0.361034 1.154026 -65.441941 1.972235 2.153078 -57.664924 -0.000001 0.000003 -0.000001 4.865032 7.791677 5.618052 -0.391365 -2.311743 61.435018 11.282030 18.001293 -3.947559 -0.112093 6.753018 5.878898 15.783276 -2.720590 -17.206623 -2.196649 -31.120599 7.358909 -6.566793 -4.138111 2.407586 -0.000003 0.000004 0.000001 2.381533 -3.660575 8.411286 -2.114712 -2.472293 18.597249 -1.875873 -4.777508 14.099855 -0.000001 -0.000001 -0.000001 -1.934161 -5.704722 13.589425 0.273784 -5.107002 26.909767 -0.664869 -1.208243 16.049437 -0.000000 0.000001 -0.000008 -3.233386 -8.556455 11.697759 4.054476 -4.065035 33.186472 2.104566 -3.140816 15.515982 0.000001 -0.000000 -0.000002 -6.478367 -11.325025 23.134867 10.722150 -2.559773 34.746064 6.417662 -3.079549 15.234110 0.000002 -0.000001 0.000000 -14.303157 18.249434 14.556316 17.483553 9.979855 -2.676333 -4.776585 -2.203332 -8.423749 -0.180863 -0.107580 -0.171425 -0.000000 -0.000000 -0.000000 -9.447955 -1.550293 -9.812808 13.601959 9.749117 1.111863 -7.385688 -1.563067 7.578536 -1.289780 0.000919 0.165065 -0.000000 -0.000000 -0.000000 
-1.333564 92.284012 1.215672 2.996068 -27.608443 1.055069 7.863563 -0.288542 -2.610230 1.129206 -0.823580 2.449263 1.139454 -0.533051 2.511065 -3.563581 17.975475 -6.731143 -6.508335 12.960450 0.201516 -0.000000 -0.000000 -0.000000 -0.049993 -8.627985 0.192716 -54.836969 0.667181 -41.431197 11.668553 -65.902071 13.050220 -50.577332 12.577309 5.064564 17.551599 -5.699202 -12.932287 10.850494 26.127712 8.644799 20.926914 51.115889 0.218785 0.000003 0.000002 -0.000003 10.030075 13.637019 -84.750244 0.867756 0.054447 -64.595558 1.132601 1.266256 -55.016282 0.000001 0.000002 -0.000002 8.576389 2.157218 -75.147230 -0.199442 1.000185 -57.855336 0.452846 1.749736 -53.581318 0.000000 -0.000001 0.000003 7.504737 1.174491 -63.778510 1.816277 1.475228 -64.567950 0.130367 -0.912168 -43.272482 0.000000 0.000000 0.000004 13.980895 1.201497 -55.004381 0.361031 1.154023 -65.441941 1.972234 2.153077 -57.664917 -0.000001 0.000000 -0.000002 4.842665 7.880070 5.688320 0.076101 -2.482199 60.942137 11.242140 17.178074 -3.943261 0.032746 6.743051 5.957601 15.783276 -2.720591 -17.206621 -2.196656 -31.120599 7.358912 -6.566799 -4.138111 2.407590 0.000000 0.000005 0.000003 2.381596 -3.660053 8.385617 -2.114722 -2.471784 18.571580 -1.876750 -4.777238 14.074090 -0.000003 -0.000003 -0.000002 -1.934291 -5.704295 13.563747 0.272996 -5.106840 26.883993 -0.664879 -1.207780 16.023716 -0.000000 0.000001 -0.000011 -3.234989 -8.555885 11.671909 4.054532 -4.064415 33.160708 2.104446 -3.140347 15.490242 -0.000000 -0.000000 -0.000003 -6.478296 -11.324753 23.109267 10.721855 -2.562200 34.720433 6.417154 -3.079937 15.208337 0.000000 -0.000000 0.000002 -14.872148 18.334570 14.692504 17.848649 9.580119 -2.712032 -4.769394 -2.513562 -8.387462 -0.180877 -0.206914 -0.050543 -0.000000 -0.000000 -0.000000 -9.558016 -1.820095 -9.847659 14.150581 9.625091 1.124648 -7.841174 -1.655238 7.469817 -1.302457 0.009188 0.172172 -0.000000 -0.000002 -0.000000 
